# xmcd CD database file
#
# Track frame offsets:
#	183
#	13873
#	27528
#	39528
#	53783
#	67973
#	79468
#	93443
#	106135
#	118130
#	131935
#	145868
#	158403
#	171648
#	185768
#	200678
#	214903
#	229073
#	243290
#	257428
#	271088
#	284818
#	298730
#	310530
#
# Disc length: 4292 seconds
#
# Revision: 0
# Processed by: cddbd v1.4PL0 Copyright (c) Steve Scherf et al.
# Submitted via: CDex 1.50beta10
#
DISCID=6e10c218
DTITLE=Billie Holiday - The Voice Of Jazz - The Complete Recordings 1933-1940
DYEAR=1991
DGENRE=Jazz
TTITLE0=The Mood That I'm In
TTITLE1=You Showed Me The Way
TTITLE2=Sentimental And Melancholy
TTITLE3=(this Is) My Last Affair
TTITLE4=Carelessly
TTITLE5=How Could You
TTITLE6=Moanin' Low
TTITLE7=Where Is The Sun
TTITLE8=Let's Call The Whole Thing Off
TTITLE9=They Can't Take That Away From Me
TTITLE10=They Can't Take That Away From Me
TTITLE11=Don't Know If I'm Coming Or Going
TTITLE12=Don't Know If I'm Coming Or Going
TTITLE13=Sun Showers
TTITLE14=Yours And Mine
TTITLE15=I'll Get By
TTITLE16=I'll Get By
TTITLE17=Mean To Me
TTITLE18=Mean To Me
TTITLE19=Foolin' Myself
TTITLE20=Easy Living
TTITLE21=I'll Never Be The Same
TTITLE22=Me Myself And I
TTITLE23=Me Myself And I
EXTD=YEAR: 1991
EXTT0=
EXTT1=
EXTT2=
EXTT3=
EXTT4=
EXTT5=
EXTT6=
EXTT7=
EXTT8=
EXTT9=
EXTT10=
EXTT11=
EXTT12=
EXTT13=
EXTT14=
EXTT15=
EXTT16=
EXTT17=
EXTT18=
EXTT19=
EXTT20=
EXTT21=
EXTT22=
EXTT23=
PLAYORDER=
